<svg id="Layer_6" data-name="Layer 6" xmlns="http://www.w3.org/2000/svg" viewBox="0 0 61 61"><defs><style>.cls-1{fill:#fff;}.cls-2{fill:#ef4438;}</style></defs><title>regular-icon</title><g id="Regular_Logo" data-name="Regular Logo"><path id="path3854" class="cls-1" d="M35.6,40.31A27.32,27.32,0,0,1,20.45,27l3.57-5-4.25-9.8H15.09c-3.81,2.21-5.13,7.74-4.62,11C15,36.78,27.4,47,39.54,48.77A10.86,10.86,0,0,0,50,44.14l.62-4.62-9.55-4.68Z"/><circle class="cls-2" cx="30.49" cy="30.5" r="28.49"/><path id="path3854-2" data-name="path3854" class="cls-1" d="M35.6,40.32A27.32,27.32,0,0,1,20.45,27l3.57-5-4.25-9.8H15.09c-3.81,2.21-5.13,7.74-4.62,11C15,36.8,27.4,47,39.55,48.78A10.86,10.86,0,0,0,50,44.16l.62-4.62-9.55-4.68Z"/></g></svg>