<svg id="Layer_6" data-name="Layer 6" xmlns="http://www.w3.org/2000/svg" viewBox="0 0 347.33 64.67"><defs><style>.cls-1{font-size:60px;fill:#484647;font-family:Seravek-Medium, Seravek;}.cls-2{letter-spacing:-0.01em;}.cls-3{letter-spacing:0em;}.cls-4{letter-spacing:-0.01em;}.cls-5{fill:#fff;}.cls-6{fill:#ef4438;}</style></defs><title>regular-logo</title><g id="Regular_Logo" data-name="Regular Logo"><text class="cls-1" transform="translate(86.83 51.84)">t<tspan class="cls-2" x="24.06" y="0">r</tspan><tspan class="cls-3" x="46.2" y="0">ansco</tspan><tspan class="cls-4" x="199.62" y="0">r</tspan><tspan x="221.88" y="0">d</tspan></text><path id="path3854" class="cls-5" d="M39.68,42.14A27.32,27.32,0,0,1,24.53,28.82l3.57-5L23.85,14H19.17c-3.81,2.21-5.13,7.74-4.62,11C19.1,38.62,31.48,48.85,43.63,50.6A10.86,10.86,0,0,0,54.1,46l.62-4.62-9.55-4.68Z"/><circle class="cls-6" cx="34.57" cy="32.34" r="28.49"/><path id="path3854-2" data-name="path3854" class="cls-5" d="M39.69,42.16A27.32,27.32,0,0,1,24.53,28.83l3.57-5L23.86,14H19.17C15.37,16.2,14,21.73,14.55,25,19.1,38.63,31.48,48.86,43.63,50.62A10.86,10.86,0,0,0,54.1,46l.62-4.62-9.55-4.68Z"/></g></svg>